<?xml  version="1.0" encoding="UTF-8"?>
<!DOCTYPE svg PUBLIC "-//W3C//DTD SVG 1.0//EN" "http://www.w3.org/TR/2001/REC-SVG-20010904/DTD/svg10.dtd" >
<svg xmlns="http://www.w3.org/2000/svg" >
<metadata>
<version>1.0</version>
<id><![CDATA[Proxima N W01SC X Cd Thin]]></id>
<vendor>Monotype Imaging Inc.</vendor>
<credits>
<name>Fonts.com WebFonts</name>
<URL>http://webfonts.fonts.com</URL>
<role>Home of the Web fonts</role>
</credits>
<license>
<URL>http://webfonts.fonts.com/Legal</URL>
</license>
<copyright><![CDATA[Copyright (c) Mark Simonson, 2005. All rights reserved.]]></copyright>
<trademark><![CDATA[Proxima Nova is a trademark of Mark Simonson.]]></trademark>
<licensee>
<name></name>
</licensee>
</metadata>
<defs >
<font horiz-adv-x="316" id="0c45fdf1-ddc9-42ed-a40d-9dff4dd1fe43">
<font-face font-family="" panose-1="2 0 5 6 3 0 0 2 0 4" ascent="769" descent="-231" units-per-em="1000" alphabetic="0">
</font-face>
<missing-glyph horiz-adv-x="0" />

<glyph unicode="&#xA;" />
<glyph unicode="&#xD;" horiz-adv-x="0" />
<glyph unicode=" " horiz-adv-x="180" />
<glyph unicode="!" horiz-adv-x="167" d="M93 132H73L62 550H104L93 132ZM116 24Q116 10 107 1T83 -9Q69 -9 60 0T50 24Q50 37 59 46T83 56Q97 56 106 47T116 24Z"  />
<glyph unicode="&quot;" horiz-adv-x="290" d="M77 443Q73 498 69 543Q67 562 66 580T64 614T63 639T62 651Q62 662 69 669T88 677Q99 677 106 670T114 651Q114 649 114 639T112 614T109 581T106 543Q102 498 99 443H77ZM191 443Q187 498 183 543Q181 562 180 580T178 614T177 639T176 651Q176 662 183 669T202 677Q213 677 220 670T228 651Q228 649 228 639T226 614T223 581T220 543Q216 498 213 443H191Z"  />
<glyph unicode="#" horiz-adv-x="347" d="M324 359H262L225 195H286L280 166H217L179 0H146L186 166H110L72 0H39L78 166H18L24 195H86L124 359H63L68 387H130L168 550H201L162 387H238L276 550H307L269 387H329L324 359ZM155 359L117 195H192L231 359H155Z"  />
<glyph unicode="$" horiz-adv-x="270" d="M123 -12Q92 -11 69 0T21 41L45 63Q78 19 123 17V278Q107 294 92 310T66 346T47 388T40 440Q40 490 64 521T123 560V628H153V562Q177 560 194 552T231 524L210 500Q182 529 153 532V296Q169 279 184 261T212 222T232 177T240 121Q240 71 216 36T153 -9V-74H123V-12ZM206 121Q206 163 191 192T153 247V22Q175 31 190 56T206 121ZM73 440Q73 405 87 378T123 328V529Q101 521 87 498T73 440Z"  />
<glyph unicode="%" horiz-adv-x="450" d="M219 426Q219 368 193 330T122 291Q78 291 53 329T27 426Q27 484 52 523T122 562Q167 562 193 523T219 426ZM424 123Q424 65 398 27T328 -12Q284 -12 258 26T232 123Q232 182 258 220T328 259Q372 259 398 221T424 123ZM121 0H89L330 550H363L121 0ZM186 426Q186 472 170 504T122 537Q91 537 75 505T58 426Q58 380 74 348T122 316Q154 316 170 348T186 426ZM393 123Q393 169 376 201T328 234Q297 234 280 202T263 123Q263 101 267 81T280 46T300 22T328 13Q343 13 355 22T375 46T388 81T393 123Z"  />
<glyph unicode="&amp;" horiz-adv-x="300" d="M261 0Q240 36 222 66Q202 28 179 8T128 -12Q86 -12 60 26T33 129Q33 160 39 185T54 230T76 268T103 300Q75 372 75 427Q75 493 95 527T151 562Q178 562 198 534T218 461Q218 431 211 408T193 365T167 329T137 296Q151 258 175 216Q187 191 197 171T218 133Q229 165 237 199T250 263L279 253Q271 208 261 170T237 100Q251 75 265 52T299 0H261ZM127 16Q150 16 169 39T204 97Q190 121 179 143T156 187Q144 210 134 230T115 270Q94 244 80 211T65 129Q65 72 84 44T127 16ZM107 427Q107 404 112 379T126 326Q151 354 169 384T188 461Q188 497 177 515T151 534Q134 534 121 511T107 427Z"  />
<glyph unicode="&apos;" horiz-adv-x="176" d="M77 443Q73 498 69 543Q67 562 66 580T64 614T63 639T62 651Q62 662 69 669T88 677Q99 677 106 670T114 651Q114 649 114 639T112 614T109 581T106 543Q102 498 99 443H77Z"  />
<glyph unicode="(" horiz-adv-x="167" d="M132 -199Q90 -96 69 13T47 243Q47 364 68 473T132 685L150 679Q135 630 123 581T101 480T87 369T82 243Q82 175 87 117T101 7T122 -94T150 -192L132 -199Z"  />
<glyph unicode=")" horiz-adv-x="167" d="M17 -192Q32 -143 44 -95T66 6T80 117T85 243Q85 311 80 369T66 479T45 581T17 679L35 685Q77 582 98 473T120 243Q120 122 99 13T35 -199L17 -192Z"  />
<glyph unicode="*" horiz-adv-x="288" d="M129 409L135 528L35 463L20 489L126 543L20 597L35 623L135 558L129 677H159L153 558L253 623L268 597L162 543L268 489L253 463L153 528L159 409H129Z"  />
<glyph unicode="+" horiz-adv-x="374" d="M203 322V160H171V322H29V352H171V508H203V352H345V322H203Z"  />
<glyph unicode="&#x2c;" horiz-adv-x="208" d="M141 3Q141 -35 122 -68T79 -118L57 -100Q81 -82 95 -57T110 -8Q108 -9 107 -9H103Q89 -9 80 0T71 24Q71 37 80 46T103 56Q119 56 130 43T141 3Z"  />
<glyph unicode="-" horiz-adv-x="230" d="M30 227V257H200V227H30Z"  />
<glyph unicode="." horiz-adv-x="208" d="M104 -9Q90 -9 81 0T71 24Q71 37 80 46T104 56Q118 56 127 47T137 24Q137 10 128 1T104 -9Z"  />
<glyph unicode="/" horiz-adv-x="177" d="M0 -20L147 687H177L30 -20H0Z"  />
<glyph unicode="0" horiz-adv-x="377" d="M324 275Q324 247 323 215T316 151T302 90T277 38T241 2T189 -12Q144 -12 118 17T77 89T58 183T53 275Q53 317 57 367T76 460T117 533T189 562Q234 562 260 533T301 461T319 367T324 275ZM289 275Q289 310 287 354T274 438T244 505T189 532Q154 532 134 505T103 439T91 355T88 275Q88 240 90 196T102 112T132 45T189 18Q224 18 244 45T274 112T286 196T289 275Z"  />
<glyph unicode="1" horiz-adv-x="243" d="M139 0V504L34 389L12 412L141 550H171V0H139Z"  />
<glyph unicode="2" horiz-adv-x="348" d="M60 0V29Q127 107 166 164T227 266T254 344T260 405Q260 461 237 496T177 532Q143 532 121 509T82 440L51 454Q71 508 99 535T177 562Q205 562 227 550T264 516T287 466T295 405Q295 379 290 346T265 267T206 163T101 30H285V0H60Z"  />
<glyph unicode="3" horiz-adv-x="347" d="M164 -129Q140 -129 120 -120T84 -95T56 -58T36 -14L67 -1Q82 -43 104 -71T164 -99Q217 -99 238 -56T259 61Q259 107 250 136T226 183T194 206T162 213Q154 213 144 213T128 212V244Q134 243 144 243T162 243Q201 243 226 278T252 382Q252 460 230 495T165 530Q146 530 132 523T108 504T89 475T74 440L43 453Q60 504 93 532T165 560Q192 560 214 550T253 519T279 465T288 386Q288 334 267 289T204 228Q222 223 238 209T266 173T286 122T294 60Q294 20 287 -14T265 -74T225 -114T164 -129Z"  />
<glyph unicode="4" horiz-adv-x="310" d="M243 78V-117H211V78H12V111L201 550H243V108H298V78H243ZM211 499L43 108H211V499Z"  />
<glyph unicode="5" horiz-adv-x="348" d="M174 -129Q145 -129 125 -121T91 -97T66 -60T47 -14L79 -3Q92 -50 113 -74T174 -99Q196 -99 213 -84T242 -43T259 15T265 81Q265 176 243 219T182 263Q155 263 135 249T90 194L63 210V550H277V520H95V236Q110 262 132 277T182 293Q236 293 268 240T300 81Q300 41 292 3T267 -64T227 -111T174 -129Z"  />
<glyph unicode="6" horiz-adv-x="350" d="M184 -12Q141 -12 115 18T76 98T58 209T53 333Q53 393 57 454T77 565T120 646T195 677Q233 677 262 652T305 581L277 566Q265 604 247 625T195 647Q159 647 138 615T105 535T91 430T88 323V304Q94 323 103 341T124 374T152 397T188 406Q239 406 273 355T307 196Q307 160 301 123T281 56T243 7T184 -12ZM184 18Q209 18 226 33T253 73T268 130T272 196Q272 248 266 282T248 338T221 367T187 376Q167 376 152 364T124 333T104 291T89 246Q89 219 92 180T104 105T132 44T184 18Z"  />
<glyph unicode="7" horiz-adv-x="278" d="M79 -117L220 520H24V550H254V528L112 -117H79Z"  />
<glyph unicode="8" horiz-adv-x="348" d="M174 -12Q112 -12 80 33T48 154Q48 188 58 218T83 273T115 316T148 344Q135 353 119 369T89 407T65 456T55 516Q55 595 88 636T174 677Q227 677 260 636T293 516Q293 484 284 457T260 407T230 369T201 344Q215 334 232 316T265 274T290 219T300 155Q300 78 268 33T174 -12ZM174 359Q178 361 192 371T220 401T246 449T258 516Q258 576 238 611T174 647Q131 647 111 612T90 516Q90 478 101 450T127 402T155 372T174 359ZM174 18Q214 18 239 53T265 155Q265 195 253 227T226 281T195 316T174 330Q168 329 153 317T123 281T95 226T83 154Q83 88 108 53T174 18Z"  />
<glyph unicode="9" horiz-adv-x="350" d="M155 -128Q117 -128 88 -103T45 -32L73 -17Q85 -55 103 -76T155 -98Q191 -98 212 -66T245 14T259 119T262 226V245Q256 225 247 207T226 175T197 152T162 143Q111 143 77 194T43 353Q43 389 49 426T69 493T107 542T166 561Q209 561 235 531T274 451T292 340T297 216Q297 156 292 95T272 -16T229 -97T155 -128ZM163 173Q183 173 198 185T226 216T246 258T261 303Q261 330 258 369T246 444T218 505T166 531Q140 531 124 516T97 476T82 419T78 353Q78 301 84 267T102 211T129 182T163 173Z"  />
<glyph unicode=":" horiz-adv-x="208" d="M104 425Q90 425 81 434T71 457Q71 471 80 480T104 490Q118 490 127 481T137 457Q137 444 128 435T104 425ZM104 -9Q90 -9 81 0T71 24Q71 37 80 46T104 56Q118 56 127 47T137 24Q137 10 128 1T104 -9Z"  />
<glyph unicode=";" horiz-adv-x="208" d="M104 425Q90 425 81 434T71 457Q71 471 80 480T104 490Q118 490 127 481T137 457Q137 444 128 435T104 425ZM141 3Q141 -35 122 -68T79 -118L57 -100Q81 -82 95 -57T110 -8Q108 -9 107 -9H103Q89 -9 80 0T71 24Q71 37 80 46T103 56Q119 56 130 43T141 3Z"  />
<glyph unicode="&lt;" horiz-adv-x="374" d="M29 324V345L345 503V467L70 334L345 202V166L29 324Z"  />
<glyph unicode="=" horiz-adv-x="374" d="M29 418V448H345V418H29ZM29 220V250H345V220H29Z"  />
<glyph unicode="&gt;" horiz-adv-x="374" d="M29 166V202L304 334L29 467V503L345 345V324L29 166Z"  />
<glyph unicode="?" horiz-adv-x="261" d="M238 441Q238 396 221 368T184 315T147 267T130 207Q130 193 136 180T152 158L126 137Q100 169 100 207Q100 247 116 273T152 323T188 373T205 441Q205 457 201 473T189 502T167 524T134 533Q96 533 68 500L47 524Q64 544 86 553T134 562Q181 562 209 528T238 441ZM166 24Q166 10 157 1T133 -9Q119 -9 110 0T100 24Q100 37 109 46T133 56Q147 56 156 47T166 24Z"  />
<glyph unicode="@" horiz-adv-x="569" d="M256 -70Q208 -70 168 -50T98 7T52 97T35 216Q35 296 60 372T129 507T228 603T348 639Q433 639 483 575T534 392Q534 324 522 268T490 171T448 108T402 85Q370 85 354 106T337 157V163Q328 149 318 135T295 110T267 92T234 85Q218 85 203 91T175 111T154 147T146 204Q146 255 158 307T194 402T249 472T323 500Q352 500 370 477T394 422L406 482H436L373 183Q372 179 371 172T370 161Q369 131 376 122T400 112Q412 112 430 129T464 182T493 270T505 392Q505 446 493 487T460 555T410 595T348 609Q292 609 241 575T152 486T91 360T68 216Q68 154 83 107T124 26T185 -24T260 -41Q299 -41 330 -26T388 16L402 -7Q370 -37 333 -53T256 -70ZM234 112Q253 112 269 120T298 143T323 173T346 207L386 390Q383 405 379 420T367 446T348 465T323 473Q288 473 262 446T217 379T189 291T179 204Q179 159 192 136T234 112Z"  />
<glyph unicode="A" horiz-adv-x="312" d="M267 0L235 179H77L45 0H12L137 667H175L300 0H267ZM156 620L82 209H230L156 620Z"  />
<glyph unicode="B" horiz-adv-x="360" d="M72 0V667H168Q227 667 262 624T298 497Q298 434 278 397T220 344Q240 341 256 326T283 288T301 237T307 180Q307 94 274 47T172 0H72ZM168 358Q195 358 213 369T243 398T258 442T263 497Q263 525 259 550T243 595T214 626T168 637H104V358H168ZM172 30Q227 30 249 70T272 179Q272 207 267 234T250 282T219 315T172 328H104V30H172Z"  />
<glyph unicode="C" horiz-adv-x="357" d="M198 -12Q157 -12 130 15T85 89T61 199T53 333Q53 404 60 467T85 577T129 651T198 678Q222 678 240 670T272 647T295 614T311 575L281 563Q267 602 250 625T198 648Q168 648 148 624T114 556T94 456T88 333Q88 267 94 210T113 110T147 43T198 18Q236 18 254 48T284 123L314 111Q308 85 299 63T275 24T242 -2T198 -12Z"  />
<glyph unicode="D" horiz-adv-x="386" d="M72 0V667H165Q210 667 242 642T294 573T323 467T333 333Q333 259 324 198T294 93T242 25T165 0H72ZM165 30Q202 30 227 53T269 118T291 214T298 333Q298 396 292 451T269 547T228 613T165 637H104V30H165Z"  />
<glyph unicode="E" horiz-adv-x="330" d="M72 0V667H282V637H104V358H275V328H104V30H282V0H72Z"  />
<glyph unicode="F" horiz-adv-x="330" d="M72 0V667H282V637H104V358H275V328H104V0H72Z"  />
<glyph unicode="G" horiz-adv-x="375" d="M198 -12Q160 -12 133 13T88 84T62 193T53 333Q53 410 61 473T87 582T132 653T198 678Q222 678 240 670T272 647T295 614T311 575L281 563Q267 602 250 625T198 648Q167 648 146 623T112 555T94 455T88 333Q88 269 93 212T112 111T146 43T198 18Q226 18 246 31T279 69V290H178V320H311V61Q291 23 261 6T198 -12Z"  />
<glyph unicode="H" horiz-adv-x="395" d="M291 0V328H104V0H72V667H104V358H291V667H323V0H291Z"  />
<glyph unicode="I" horiz-adv-x="176" d="M72 0V667H104V0H72Z"  />
<glyph unicode="J" horiz-adv-x="298" d="M109 -12Q78 -12 54 0T6 42L30 65Q47 39 67 29T109 18Q151 18 172 41T194 121V667H226V121Q226 51 195 20T109 -12Z"  />
<glyph unicode="K" horiz-adv-x="372" d="M315 0L151 319L104 231V0H72V667H104V287L302 667H341L167 348L354 0H315Z"  />
<glyph unicode="L" horiz-adv-x="306" d="M72 0V667H104V30H282V0H72Z"  />
<glyph unicode="M" horiz-adv-x="508" d="M404 0V609L263 0H245L104 609V0H72V667H124L254 110L385 667H436V0H404Z"  />
<glyph unicode="N" horiz-adv-x="395" d="M291 0L104 575V0H72V667H104L291 98V667H323V0H291Z"  />
<glyph unicode="O" horiz-adv-x="396" d="M198 -12Q157 -12 129 16T84 91T60 201T53 333Q53 402 60 465T84 575T129 650T198 678Q239 678 267 650T312 575T336 465T343 333Q343 264 336 201T312 91T267 16T198 -12ZM198 18Q229 18 250 44T284 113T302 214T308 333Q308 396 303 453T284 553T250 622T198 648Q167 648 146 623T112 554T94 453T88 333Q88 271 93 214T112 114T146 44T198 18Z"  />
<glyph unicode="P" horiz-adv-x="341" d="M72 0V667H172Q207 667 232 652T274 611T299 551T307 478Q307 440 299 406T275 345T233 304T172 289H104V0H72ZM171 319Q223 319 247 364T272 478Q272 547 248 592T171 637H104V319H171Z"  />
<glyph unicode="Q" horiz-adv-x="396" d="M198 -12Q157 -12 129 16T84 91T60 201T53 333Q53 402 60 465T84 575T129 650T198 678Q239 678 267 650T312 575T336 465T343 333Q343 285 340 241T330 157T310 86T281 32L302 -23L273 -35L257 7Q230 -12 198 -12ZM198 18Q225 18 245 38L184 200L214 212L267 70Q289 114 298 183T308 333Q308 396 303 453T284 553T250 622T198 648Q167 648 146 623T112 554T94 453T88 333Q88 271 93 214T112 114T146 44T198 18Z"  />
<glyph unicode="R" horiz-adv-x="366" d="M277 0L178 289H104V0H72V667H172Q232 667 269 619T307 478Q307 432 298 400T275 345T243 311T209 294L313 0H277ZM171 319Q223 319 247 364T272 478Q272 547 248 592T171 637H104V319H171Z"  />
<glyph unicode="S" horiz-adv-x="319" d="M145 -12Q110 -12 80 3T27 45L51 71Q67 47 93 33T145 18Q166 18 184 27T217 53T240 93T248 147Q248 192 233 225T196 286T147 338T98 391T60 452T45 532Q45 566 55 593T83 639T123 668T170 678Q229 678 267 637L248 612Q216 648 170 648Q134 648 106 617T77 532Q77 494 92 464T129 408T178 356T227 300T265 233T280 147Q280 113 271 84T243 34T200 0T145 -12Z"  />
<glyph unicode="T" horiz-adv-x="287" d="M127 0V637H18V667H269V637H159V0H127Z"  />
<glyph unicode="U" horiz-adv-x="396" d="M198 -12Q138 -12 105 27T72 154V667H104V154Q104 78 130 48T198 18Q240 18 266 48T292 154V667H324V154Q324 66 291 27T198 -12Z"  />
<glyph unicode="V" horiz-adv-x="312" d="M137 0L12 667H45L156 47L267 667H300L175 0H137Z"  />
<glyph unicode="W" horiz-adv-x="490" d="M328 0L245 587L162 0H124L24 667H59L143 63L228 667H262L347 63L431 667H466L366 0H328Z"  />
<glyph unicode="X" horiz-adv-x="308" d="M264 0L154 302L44 0H8L136 338L15 667H52L154 376L256 667H293L172 339L300 0H264Z"  />
<glyph unicode="Y" horiz-adv-x="322" d="M145 0V289L2 667H38L161 328L286 667H320L177 289V0H145Z"  />
<glyph unicode="Z" horiz-adv-x="309" d="M36 0V31L233 637H36V667H266V637L68 30H273V0H36Z"  />
<glyph unicode="[" horiz-adv-x="162" d="M34 -190V678H145V648H64V-160H145V-190H34Z"  />
<glyph unicode="\" horiz-adv-x="177" d="M1 687H31L178 -20H148L1 687Z"  />
<glyph unicode="]" horiz-adv-x="162" d="M17 -190V-160H98V648H17V678H128V-190H17Z"  />
<glyph unicode="^" horiz-adv-x="324" d="M273 333L162 636L51 333H19L149 667H175L305 333H273Z"  />
<glyph unicode="_" horiz-adv-x="279" d="M-3 -70V-40H282V-70H-3Z"  />
<glyph unicode="`" horiz-adv-x="119" d="M95 556L0 700H41L119 556H95Z"  />
<glyph unicode="a" horiz-adv-x="266" d="M151 550L256 0H223L197 146H69L43 0H10L115 550H151ZM133 499L74 175H192L133 499Z"  />
<glyph unicode="b" horiz-adv-x="299" d="M65 0V550H139Q190 550 221 514T253 409Q253 359 237 329T191 285Q207 280 219 267T241 235T255 194T260 149Q260 78 231 39T142 0H65ZM142 29Q189 29 207 61T226 148Q226 171 222 193T207 232T181 259T142 269H97V29H142ZM139 298Q162 298 177 306T201 330T214 365T218 409Q218 430 215 450T203 486T179 511T139 521H97V298H139Z"  />
<glyph unicode="c" horiz-adv-x="322" d="M179 -12Q142 -12 117 11T76 73T54 164T47 275Q47 334 53 386T75 477T116 539T179 562Q219 562 243 539T283 474L255 463Q242 498 224 515T179 533Q151 533 132 513T102 457T86 375T81 275Q81 222 86 175T102 93T132 38T179 17Q208 17 226 36T255 93L284 82Q269 38 245 13T179 -12Z"  />
<glyph unicode="d" horiz-adv-x="352" d="M65 0V550H153Q192 550 220 530T268 473T296 385T305 274Q305 214 296 164T268 77T221 20T153 0H65ZM153 29Q184 29 206 48T243 100T264 178T271 274Q271 325 265 370T244 448T207 501T153 521H97V29H153Z"  />
<glyph unicode="e" horiz-adv-x="293" d="M65 0V550H250V521H97V298H244V269H97V29H250V0H65Z"  />
<glyph unicode="f" horiz-adv-x="293" d="M65 0V550H250V521H97V298H244V269H97V0H65Z"  />
<glyph unicode="g" horiz-adv-x="340" d="M179 -12Q143 -12 118 9T78 68T55 159T47 275Q47 338 54 391T77 482T118 541T179 562Q201 562 217 555T245 536T266 508T282 474L255 463Q242 495 226 514T179 533Q150 533 131 513T101 457T86 374T81 275Q81 223 85 177T101 95T131 38T179 17Q205 17 223 28T253 58V239H171V268H284V49Q261 14 236 1T179 -12Z"  />
<glyph unicode="h" horiz-adv-x="350" d="M253 0V269H97V0H65V550H97V298H253V550H285V0H253Z"  />
<glyph unicode="i" horiz-adv-x="162" d="M65 0V550H97V0H65Z"  />
<glyph unicode="j" horiz-adv-x="261" d="M95 -12Q39 -12 4 36L26 57Q40 36 58 27T95 17Q128 17 146 35T164 99V550H196V99Q196 41 168 15T95 -12Z"  />
<glyph unicode="k" horiz-adv-x="329" d="M275 0L135 259L97 190V0H65V550H97V245L264 550H303L152 287L314 0H275Z"  />
<glyph unicode="l" horiz-adv-x="272" d="M65 0V550H97V29H250V0H65Z"  />
<glyph unicode="m" horiz-adv-x="447" d="M351 0V491L234 0H214L97 491V0H65V550H114L224 92L334 550H382V0H351Z"  />
<glyph unicode="n" horiz-adv-x="350" d="M247 0L97 474V0H65V550H103L253 82V550H285V0H247Z"  />
<glyph unicode="o" horiz-adv-x="359" d="M179 -12Q141 -12 116 11T75 74T54 166T47 275Q47 332 53 384T75 475T115 538T179 562Q217 562 242 539T283 476T305 384T312 275Q312 218 306 166T284 75T243 12T179 -12ZM179 17Q208 17 227 38T257 96T272 178T277 275Q277 326 273 372T257 454T227 511T179 533Q150 533 131 512T101 455T86 373T81 275Q81 225 85 179T101 96T131 39T179 17Z"  />
<glyph unicode="p" horiz-adv-x="287" d="M65 0V550H142Q173 550 195 538T231 503T253 453T260 393Q260 361 253 333T232 282T195 248T142 235H97V0H65ZM141 264Q185 264 205 300T226 393Q226 448 206 484T141 521H97V264H141Z"  />
<glyph unicode="q" horiz-adv-x="359" d="M179 -12Q141 -12 116 11T75 74T54 166T47 275Q47 332 53 384T75 475T115 538T179 562Q217 562 242 539T283 476T305 384T312 275Q312 196 300 129T255 24L272 -21L244 -32L231 2Q208 -12 179 -12ZM179 17Q202 17 220 32L174 156L202 167L242 59Q262 95 269 152T277 275Q277 326 273 372T257 454T227 511T179 533Q150 533 131 512T101 455T86 373T81 275Q81 225 85 179T101 96T131 39T179 17Z"  />
<glyph unicode="r" horiz-adv-x="306" d="M230 0L147 235H97V0H65V550H142Q171 550 193 538T230 505T252 456T260 393Q260 359 253 333T235 287T208 256T177 240L267 0H230ZM141 264Q185 264 205 300T226 393Q226 448 206 484T141 521H97V264H141Z"  />
<glyph unicode="s" horiz-adv-x="270" d="M128 -12Q96 -12 72 0T21 41L45 63Q81 17 128 17Q158 17 182 44T206 121Q206 158 194 185T163 235T123 278T83 322T53 373T40 440Q40 468 48 491T71 529T104 553T144 562Q172 562 191 554T231 524L210 500Q180 533 144 533Q115 533 94 509T73 440Q73 408 85 383T116 336T156 292T196 246T227 191T240 121Q240 92 232 68T209 26T174 -2T128 -12Z"  />
<glyph unicode="t" horiz-adv-x="239" d="M103 0V521H15V550H224V521H135V0H103Z"  />
<glyph unicode="u" horiz-adv-x="351" d="M176 -12Q139 -12 117 1T84 41T69 111T65 212V550H97V144Q97 78 115 48T176 17Q216 17 235 47T254 144V550H286V212Q286 153 283 111T267 41T234 1T176 -12Z"  />
<glyph unicode="v" horiz-adv-x="266" d="M115 0L10 550H43L133 51L223 550H256L151 0H115Z"  />
<glyph unicode="w" horiz-adv-x="428" d="M290 0L214 475L138 0H102L10 550H44L120 67L198 550H230L308 67L384 550H418L326 0H290Z"  />
<glyph unicode="x" horiz-adv-x="270" d="M228 0L135 243L42 0H6L117 279L12 550H48L135 316L221 550H258L153 280L264 0H228Z"  />
<glyph unicode="y" horiz-adv-x="284" d="M126 0V238L2 550H37L142 276L248 550H282L158 238V0H126Z"  />
<glyph unicode="z" horiz-adv-x="266" d="M29 0V28L198 521H29V550H231V522L62 29H237V0H29Z"  />
<glyph unicode="{" horiz-adv-x="187" d="M138 -190Q123 -190 109 -184T84 -165T66 -136T59 -97V157Q59 185 46 207T7 229V259Q33 259 46 281T59 331V585Q59 607 66 624T84 653T109 671T138 678H170V648H138Q118 648 104 631T89 585V331Q89 299 79 277T44 244Q69 233 79 211T89 157V-97Q89 -125 103 -142T138 -160H170V-190H138Z"  />
<glyph unicode="|" horiz-adv-x="174" d="M72 -20V687H102V-20H72Z"  />
<glyph unicode="}" horiz-adv-x="187" d="M17 -160H49Q69 -160 83 -143T98 -97V157Q98 189 108 211T143 244Q118 255 108 277T98 331V585Q98 614 84 631T49 648H17V678H49Q64 678 78 672T103 653T121 624T128 585V331Q128 303 141 281T180 259V229Q154 229 141 207T128 157V-97Q128 -119 121 -136T103 -165T78 -183T49 -190H17V-160Z"  />
<glyph unicode="~" horiz-adv-x="376" d="M348 664Q345 627 341 587T326 512T297 456T250 433Q227 433 213 448T191 485T177 534T166 582T151 620T126 635Q92 635 80 583T58 431L28 436Q31 473 35 513T50 587T79 643T126 665Q149 665 163 650T185 613T199 564T210 515T225 477T250 462Q284 462 296 513T318 667L348 664Z"  />
<glyph unicode="&#xA0;" horiz-adv-x="180" />
<glyph unicode="&#xA1;" horiz-adv-x="167" d="M74 418H94L105 0H63L74 418ZM51 526Q51 540 60 549T84 559Q98 559 107 550T117 526Q117 513 108 504T84 494Q70 494 61 503T51 526Z"  />
<glyph unicode="&#xA2;" horiz-adv-x="322" d="M165 -11Q132 -7 110 17T73 80T53 169T47 275Q47 331 53 381T73 469T109 532T165 561V615H195V561Q227 556 248 533T283 474L255 463Q244 492 230 509T195 531V19Q217 24 231 42T255 93L284 82Q270 43 250 19T195 -11V-100H165V-11ZM81 275Q81 225 85 181T99 103T125 46T165 18V531Q141 526 125 504T99 448T85 370T81 275Z"  />
<glyph unicode="&#xA3;" horiz-adv-x="284" d="M23 253H85Q70 288 55 328T40 421Q40 487 71 524T148 561Q183 561 209 540T246 481L220 469Q209 500 191 517T148 534Q116 534 93 502T70 420Q70 395 74 373T86 331T101 292T118 253H192V223H129Q134 206 137 189T141 154Q141 138 136 121T123 89T107 61T91 39Q103 48 117 48Q130 48 140 44T159 35T176 25T195 21Q211 21 225 30T246 52L270 30Q257 12 237 2T194 -9Q177 -9 167 -5T148 6T132 16T112 21Q99 21 84 13T53 -7L36 20Q68 42 89 77T111 155Q111 172 107 189T97 223H23V253Z"  />
<glyph unicode="&#xA4;" horiz-adv-x="506" d="M253 222Q310 222 341 262T372 365Q372 395 364 421T341 467T304 498T253 509Q224 509 202 498T165 468T141 422T133 365Q133 334 141 308T164 263T202 233T253 222ZM19 168L88 239Q50 294 50 365Q50 436 88 489L19 560L64 603L131 534Q155 552 185 563T253 574Q289 574 320 563T375 534L442 603L487 560L418 489Q455 435 455 365Q455 330 445 298T417 240L487 168L442 125L374 194Q325 157 253 157Q181 157 132 194L64 125L19 168Z"  />
<glyph unicode="&#xA5;" horiz-adv-x="284" d="M126 0V118H15V148H126V237H15V267H114L2 550H37L142 276L248 550H282L169 267H269V237H158V148H269V118H158V0H126Z"  />
<glyph unicode="&#xA6;" horiz-adv-x="174" d="M72 -20V296H102V-20H72ZM72 371V687H102V371H72Z"  />
<glyph unicode="&#xA7;" horiz-adv-x="278" d="M246 287Q246 253 229 223T173 176Q211 143 228 111T246 36Q246 12 238 -9T216 -46T182 -71T137 -81Q100 -81 76 -67T28 -22L50 -1Q61 -17 82 -35T137 -54Q153 -54 167 -47T193 -27T210 2T216 36Q216 70 203 93T171 136T129 173T87 210T55 257T42 321Q42 336 47 353T62 385T89 411T130 425Q78 465 60 499T42 572Q42 596 50 615T73 648T106 669T142 677Q199 677 240 626L218 606Q198 633 182 641T142 650Q112 650 92 628T72 572Q72 541 85 518T117 476T159 440T201 401T233 352T246 287ZM216 287Q216 312 209 331T192 364T171 388T153 405Q128 401 112 392T87 371T75 346T72 321Q72 286 90 257T152 194Q187 211 201 235T216 287Z"  />
<glyph unicode="&#xA8;" horiz-adv-x="252" d="M215 598Q215 587 207 579T187 570Q176 570 168 578T159 598Q159 609 167 617T187 626Q198 626 206 618T215 598ZM93 598Q93 587 85 579T65 570Q54 570 46 578T37 598Q37 609 45 617T65 626Q76 626 84 618T93 598Z"  />
<glyph unicode="&#xA9;" horiz-adv-x="778" d="M734 334Q734 263 707 200T633 90T523 16T389 -11Q318 -11 255 16T145 90T71 200T44 334Q44 405 71 468T145 578T255 652T389 679Q460 679 523 652T633 578T707 468T734 334ZM708 334Q708 400 683 458T615 559T513 628T389 653Q323 653 265 628T164 560T95 458T70 334Q70 268 95 210T163 109T265 40T389 15Q455 15 513 40T614 108T683 210T708 334ZM533 184Q506 152 472 136T390 119Q346 119 308 135T242 181T198 250T181 334Q181 380 197 420T242 488T308 533T390 550Q437 550 472 534T533 486L513 466Q493 492 459 507T390 523Q355 523 323 510T265 472T225 412T210 334Q210 293 225 259T265 199T322 160T390 146Q426 146 459 162T513 204L533 184Z"  />
<glyph unicode="&#xAA;" horiz-adv-x="261" d="M181 326V360Q168 337 151 328T116 318Q77 318 55 347T33 423Q33 469 55 498T116 527Q133 527 150 518T181 486V549Q181 588 167 604T126 621Q112 621 96 615T60 584L45 607Q83 648 129 648Q176 648 192 620T209 535V326H181ZM120 340Q138 340 154 350T181 386V459Q171 485 155 495T120 505Q91 505 77 480T62 423Q62 390 76 365T120 340Z"  />
<glyph unicode="&#xAB;" horiz-adv-x="273" d="M210 63L120 243L210 420H243L153 243L243 63H210ZM120 63L30 243L120 420H153L63 243L153 63H120Z"  />
<glyph unicode="&#xAC;" horiz-adv-x="374" d="M345 220H313V418H29V448H345V220Z"  />
<glyph unicode="&#xAD;" horiz-adv-x="230" d="M30 227V257H200V227H30Z"  />
<glyph unicode="&#xAE;" horiz-adv-x="494" d="M459 465Q459 421 443 383T398 315T330 270T247 253Q203 253 165 269T97 315T52 382T35 465Q35 509 51 548T97 615T164 660T247 677Q291 677 330 661T397 616T442 548T459 465ZM433 465Q433 504 419 538T379 597T320 636T247 651Q208 651 175 637T116 597T76 538T61 465Q61 427 75 393T115 334T174 294T247 279Q286 279 319 293T378 333T418 393T433 465ZM306 343L243 439H196V343H167V586H266Q297 586 318 566T340 512Q340 492 333 478T315 456T294 444T278 440L343 343H306ZM310 512Q310 532 296 545T266 559H196V467H266Q282 467 296 480T310 512Z"  />
<glyph unicode="&#xAF;" horiz-adv-x="240" d="M0 591V618H240V591H0Z"  />
<glyph unicode="&#xB0;" horiz-adv-x="273" d="M247 566Q247 543 238 523T214 488T179 465T136 456Q113 456 93 464T58 488T35 523T26 566Q26 589 34 609T58 644T93 668T136 677Q159 677 179 668T214 644T238 609T247 566ZM217 566Q217 599 193 623T136 647Q103 647 80 623T56 566Q56 533 79 510T136 486Q169 486 193 509T217 566Z"  />
<glyph unicode="&#xB1;" horiz-adv-x="374" d="M203 322V160H171V322H29V352H171V508H203V352H345V322H203ZM29 60V90H345V60H29Z"  />
<glyph unicode="&#xB2;" horiz-adv-x="240" d="M34 421V445Q77 513 105 558T150 634T172 687T179 731Q179 763 163 782T122 801Q76 801 53 747L30 763Q46 794 67 810T122 827Q160 827 185 802T210 731Q210 708 203 685T180 631T137 555T69 447H211V421H34Z"  />
<glyph unicode="&#xB3;" horiz-adv-x="240" d="M214 528Q214 479 191 447T119 414Q84 414 61 434T25 482L49 497Q60 472 76 456T118 440Q153 440 168 463T183 529Q183 554 177 571T161 597T139 611T116 615Q109 615 102 615T92 614V641Q96 640 102 640T115 640Q142 640 160 659T179 719Q179 762 163 781T119 801Q94 801 79 787T53 749L29 764Q43 793 66 810T119 827Q157 827 183 802T209 722Q209 688 193 662T150 628Q173 623 193 596T214 528Z"  />
<glyph unicode="&#xB4;" horiz-adv-x="119" d="M24 556H0L78 700H119L24 556Z"  />
<glyph unicode="&#xB5;" horiz-adv-x="342" d="M65 -184V483H95V89Q95 13 148 13Q164 13 179 21T207 42T230 72T247 107V483H277V0H247V70Q230 35 205 12T144 -12Q113 -12 95 0V-184H65Z"  />
<glyph unicode="&#xB6;" horiz-adv-x="449" d="M327 -100V637H229V-100H199V323Q163 323 132 336T78 373T41 428T27 495Q27 531 40 562T77 616T132 653T199 667H357V-100H327Z"  />
<glyph unicode="&#xB7;" horiz-adv-x="208" d="M137 245Q137 231 128 222T104 212Q90 212 81 221T71 245Q71 258 80 267T104 277Q118 277 127 268T137 245Z"  />
<glyph unicode="&#xB8;" horiz-adv-x="151" d="M70 -187Q47 -187 31 -179T0 -159L13 -133Q28 -147 40 -153T70 -160Q90 -160 106 -147T122 -111Q122 -92 113 -82T89 -71Q78 -71 72 -75T58 -86L37 -74L68 11H98L71 -59Q82 -49 100 -49Q120 -49 135 -65T151 -111Q151 -143 128 -165T70 -187Z"  />
<glyph unicode="&#xB9;" horiz-adv-x="190" d="M100 421V781L38 714L20 733L103 821H130V421H100Z"  />
<glyph unicode="&#xBA;" horiz-adv-x="272" d="M136 318Q110 318 92 331T61 368T44 420T38 483Q38 516 43 545T61 598T91 634T136 648Q162 648 180 635T211 598T228 546T234 483Q234 450 229 421T211 368T181 332T136 318ZM136 344Q156 344 169 356T190 387T201 432T204 483Q204 509 201 533T190 577T169 609T136 621Q116 621 103 609T83 578T72 534T68 483Q68 457 71 432T82 388T103 356T136 344Z"  />
<glyph unicode="&#xBB;" horiz-adv-x="273" d="M63 63H30L120 243L30 420H63L153 243L63 63ZM153 63H120L210 243L120 420H153L243 243L153 63Z"  />
<glyph unicode="&#xBC;" horiz-adv-x="514" d="M135 0H103L372 667H405L135 0ZM458 113V0H429V113H294V140L421 400H458V139H496V113H458ZM429 361L321 139H429V361ZM100 267V627L38 560L20 579L103 667H130V267H100Z"  />
<glyph unicode="&#xBD;" horiz-adv-x="544" d="M135 0H103L372 667H405L135 0ZM338 0V24Q381 92 409 137T454 213T476 266T483 310Q483 342 467 361T426 380Q380 380 357 326L334 342Q350 373 371 389T426 406Q464 406 489 381T514 310Q514 287 507 264T484 210T441 134T373 26H515V0H338ZM100 267V627L38 560L20 579L103 667H130V267H100Z"  />
<glyph unicode="&#xBE;" horiz-adv-x="550" d="M171 0H139L408 667H441L171 0ZM494 113V0H465V113H330V140L457 400H494V139H532V113H494ZM465 361L357 139H465V361ZM214 374Q214 325 191 293T119 260Q84 260 61 280T25 328L49 343Q60 318 76 302T118 286Q153 286 168 309T183 375Q183 400 177 417T161 443T139 457T116 461Q109 461 102 461T92 460V487Q96 486 102 486T115 486Q142 486 160 505T179 565Q179 608 163 627T119 647Q94 647 79 633T53 595L29 610Q43 639 66 656T119 673Q157 673 183 648T209 568Q209 534 193 508T150 474Q173 469 193 442T214 374Z"  />
<glyph unicode="&#xBF;" horiz-adv-x="261" d="M23 109Q23 154 40 182T77 235T114 283T131 343Q131 357 125 370T109 392L135 413Q161 381 161 343Q161 303 145 277T109 227T73 176T56 109Q56 93 60 77T72 48T94 26T127 17Q165 17 193 50L214 26Q197 6 175 -3T127 -12Q80 -12 52 22T23 109ZM95 526Q95 540 104 549T128 559Q142 559 151 550T161 526Q161 513 152 504T128 494Q114 494 105 503T95 526Z"  />
<glyph unicode="&#xC0;" horiz-adv-x="312" d="M172 728L77 872H118L196 728H172ZM267 0L235 179H77L45 0H12L137 667H175L300 0H267ZM156 620L82 209H230L156 620Z"  />
<glyph unicode="&#xC1;" horiz-adv-x="312" d="M141 728H117L195 872H236L141 728ZM267 0L235 179H77L45 0H12L137 667H175L300 0H267ZM156 620L82 209H230L156 620Z"  />
<glyph unicode="&#xC2;" horiz-adv-x="312" d="M221 728L155 844L92 728H69L137 872H173L244 728H221ZM267 0L235 179H77L45 0H12L137 667H175L300 0H267ZM156 620L82 209H230L156 620Z"  />
<glyph unicode="&#xC3;" horiz-adv-x="312" d="M194 726Q173 726 163 743T148 782T136 821T116 839Q99 839 89 814T78 732H56Q56 759 59 783T69 826T89 855T119 866Q140 866 150 849T165 810T177 771T197 753Q214 753 224 778T235 860H257Q257 833 254 809T244 767T224 737T194 726ZM267 0L235 179H77L45 0H12L137 667H175L300 0H267ZM156 620L82 209H230L156 620Z"  />
<glyph unicode="&#xC4;" horiz-adv-x="312" d="M245 764Q245 753 237 745T217 736Q206 736 198 744T189 764Q189 775 197 783T217 792Q228 792 236 784T245 764ZM123 764Q123 753 115 745T95 736Q84 736 76 744T67 764Q67 775 75 783T95 792Q106 792 114 784T123 764ZM267 0L235 179H77L45 0H12L137 667H175L300 0H267ZM156 620L82 209H230L156 620Z"  />
<glyph unicode="&#xC5;" horiz-adv-x="312" d="M157 692Q125 692 102 715T79 770Q79 802 102 825T157 848Q189 848 211 825T234 770Q234 738 212 715T157 692ZM157 716Q180 716 195 731T211 770Q211 793 196 808T157 824Q134 824 119 809T103 770Q103 747 118 732T157 716ZM267 0L235 179H77L45 0H12L137 667H175L300 0H267ZM156 620L82 209H230L156 620Z"  />
<glyph unicode="&#xC6;" horiz-adv-x="509" d="M246 0V179H110L55 0H22L233 667H456V637H278V358H449V328H278V30H456V0H246ZM246 620L119 209H246V620Z"  />
<glyph unicode="&#xC7;" horiz-adv-x="357" d="M193 -183Q170 -183 154 -175T123 -155L136 -129Q151 -143 163 -149T193 -156Q213 -156 229 -143T245 -107Q245 -88 236 -78T212 -67Q201 -67 195 -71T181 -82L160 -70L181 -11Q145 -5 121 24T81 99T60 205T53 333Q53 404 60 467T85 577T129 651T198 678Q222 678 240 670T272 647T295 614T311 575L281 563Q267 602 250 625T198 648Q168 648 148 624T114 556T94 456T88 333Q88 267 94 210T113 110T147 43T198 18Q236 18 254 48T284 123L314 111Q303 63 279 29T211 -11L194 -55Q205 -45 223 -45Q243 -45 258 -61T274 -107Q274 -139 251 -161T193 -183Z"  />
<glyph unicode="&#xC8;" horiz-adv-x="330" d="M197 728L102 872H143L221 728H197ZM72 0V667H282V637H104V358H275V328H104V30H282V0H72Z"  />
<glyph unicode="&#xC9;" horiz-adv-x="330" d="M163 728H139L217 872H258L163 728ZM72 0V667H282V637H104V358H275V328H104V30H282V0H72Z"  />
<glyph unicode="&#xCA;" horiz-adv-x="330" d="M245 728L179 844L116 728H93L161 872H197L268 728H245ZM72 0V667H282V637H104V358H275V328H104V30H282V0H72Z"  />
<glyph unicode="&#xCB;" horiz-adv-x="330" d="M267 764Q267 753 259 745T239 736Q228 736 220 744T211 764Q211 775 219 783T239 792Q250 792 258 784T267 764ZM145 764Q145 753 137 745T117 736Q106 736 98 744T89 764Q89 775 97 783T117 792Q128 792 136 784T145 764ZM72 0V667H282V637H104V358H275V328H104V30H282V0H72Z"  />
<glyph unicode="&#xCC;" horiz-adv-x="176" d="M105 728L10 872H51L129 728H105ZM72 0V667H104V0H72Z"  />
<glyph unicode="&#xCD;" horiz-adv-x="176" d="M74 728H50L128 872H169L74 728ZM72 0V667H104V0H72Z"  />
<glyph unicode="&#xCE;" horiz-adv-x="176" d="M154 728L88 844L25 728H2L70 872H106L177 728H154ZM72 0V667H104V0H72Z"  />
<glyph unicode="&#xCF;" horiz-adv-x="176" d="M180 764Q180 753 172 745T152 736Q141 736 133 744T124 764Q124 775 132 783T152 792Q163 792 171 784T180 764ZM58 764Q58 753 50 745T30 736Q19 736 11 744T2 764Q2 775 10 783T30 792Q41 792 49 784T58 764ZM72 0V667H104V0H72Z"  />
<glyph unicode="&#xD0;" horiz-adv-x="402" d="M88 0V319H26V349H88V667H181Q226 667 258 642T310 573T339 467T349 333Q349 259 340 198T310 93T258 25T181 0H88ZM120 319V30H181Q218 30 243 53T285 118T307 214T314 333Q314 396 308 451T285 547T244 613T181 637H120V349H218V319H120Z"  />
<glyph unicode="&#xD1;" horiz-adv-x="395" d="M231 726Q210 726 200 743T185 782T173 821T153 839Q136 839 126 814T115 732H93Q93 759 96 783T106 826T126 855T156 866Q177 866 187 849T202 810T214 771T234 753Q251 753 261 778T272 860H294Q294 833 291 809T281 767T261 737T231 726ZM291 0L104 575V0H72V667H104L291 98V667H323V0H291Z"  />
<glyph unicode="&#xD2;" horiz-adv-x="396" d="M213 728L118 872H159L237 728H213ZM198 -12Q157 -12 129 16T84 91T60 201T53 333Q53 402 60 465T84 575T129 650T198 678Q239 678 267 650T312 575T336 465T343 333Q343 264 336 201T312 91T267 16T198 -12ZM198 18Q229 18 250 44T284 113T302 214T308 333Q308 396 303 453T284 553T250 622T198 648Q167 648 146 623T112 554T94 453T88 333Q88 271 93 214T112 114T146 44T198 18Z"  />
<glyph unicode="&#xD3;" horiz-adv-x="396" d="M183 728H159L237 872H278L183 728ZM198 -12Q157 -12 129 16T84 91T60 201T53 333Q53 402 60 465T84 575T129 650T198 678Q239 678 267 650T312 575T336 465T343 333Q343 264 336 201T312 91T267 16T198 -12ZM198 18Q229 18 250 44T284 113T302 214T308 333Q308 396 303 453T284 553T250 622T198 648Q167 648 146 623T112 554T94 453T88 333Q88 271 93 214T112 114T146 44T198 18Z"  />
<glyph unicode="&#xD4;" horiz-adv-x="396" d="M263 728L197 844L134 728H111L179 872H215L286 728H263ZM198 -12Q157 -12 129 16T84 91T60 201T53 333Q53 402 60 465T84 575T129 650T198 678Q239 678 267 650T312 575T336 465T343 333Q343 264 336 201T312 91T267 16T198 -12ZM198 18Q229 18 250 44T284 113T302 214T308 333Q308 396 303 453T284 553T250 622T198 648Q167 648 146 623T112 554T94 453T88 333Q88 271 93 214T112 114T146 44T198 18Z"  />
<glyph unicode="&#xD5;" horiz-adv-x="396" d="M236 726Q215 726 205 743T190 782T178 821T158 839Q141 839 131 814T120 732H98Q98 759 101 783T111 826T131 855T161 866Q182 866 192 849T207 810T219 771T239 753Q256 753 266 778T277 860H299Q299 833 296 809T286 767T266 737T236 726ZM198 -12Q157 -12 129 16T84 91T60 201T53 333Q53 402 60 465T84 575T129 650T198 678Q239 678 267 650T312 575T336 465T343 333Q343 264 336 201T312 91T267 16T198 -12ZM198 18Q229 18 250 44T284 113T302 214T308 333Q308 396 303 453T284 553T250 622T198 648Q167 648 146 623T112 554T94 453T88 333Q88 271 93 214T112 114T146 44T198 18Z"  />
<glyph unicode="&#xD6;" horiz-adv-x="396" d="M286 764Q286 753 278 745T258 736Q247 736 239 744T230 764Q230 775 238 783T258 792Q269 792 277 784T286 764ZM164 764Q164 753 156 745T136 736Q125 736 117 744T108 764Q108 775 116 783T136 792Q147 792 155 784T164 764ZM198 -12Q157 -12 129 16T84 91T60 201T53 333Q53 402 60 465T84 575T129 650T198 678Q239 678 267 650T312 575T336 465T343 333Q343 264 336 201T312 91T267 16T198 -12ZM198 18Q229 18 250 44T284 113T302 214T308 333Q308 396 303 453T284 553T250 622T198 648Q167 648 146 623T112 554T94 453T88 333Q88 271 93 214T112 114T146 44T198 18Z"  />
<glyph unicode="&#xD7;" horiz-adv-x="374" d="M187 313L75 200L53 222L166 334L53 446L75 468L187 355L299 468L321 446L208 334L321 222L299 200L187 313Z"  />
<glyph unicode="&#xD8;" horiz-adv-x="396" d="M198 -12Q169 -12 148 1T109 40L95 0H62L89 77Q69 125 61 191T53 333Q53 402 60 465T84 575T129 650T198 678Q227 678 248 665T286 626L301 667H334L306 589Q326 541 334 475T343 333Q343 264 336 201T312 91T267 16T198 -12ZM198 18Q229 18 250 44T284 113T302 214T308 333Q308 390 304 443T288 538L124 80Q137 51 155 35T198 18ZM88 333Q88 276 92 224T108 128L272 586Q259 615 241 631T198 648Q167 648 146 623T112 554T94 453T88 333Z"  />
<glyph unicode="&#xD9;" horiz-adv-x="396" d="M213 728L118 872H159L237 728H213ZM198 -12Q138 -12 105 27T72 154V667H104V154Q104 78 130 48T198 18Q240 18 266 48T292 154V667H324V154Q324 66 291 27T198 -12Z"  />
<glyph unicode="&#xDA;" horiz-adv-x="396" d="M182 728H158L236 872H277L182 728ZM198 -12Q138 -12 105 27T72 154V667H104V154Q104 78 130 48T198 18Q240 18 266 48T292 154V667H324V154Q324 66 291 27T198 -12Z"  />
<glyph unicode="&#xDB;" horiz-adv-x="396" d="M262 728L196 844L133 728H110L178 872H214L285 728H262ZM198 -12Q138 -12 105 27T72 154V667H104V154Q104 78 130 48T198 18Q240 18 266 48T292 154V667H324V154Q324 66 291 27T198 -12Z"  />
<glyph unicode="&#xDC;" horiz-adv-x="396" d="M286 764Q286 753 278 745T258 736Q247 736 239 744T230 764Q230 775 238 783T258 792Q269 792 277 784T286 764ZM164 764Q164 753 156 745T136 736Q125 736 117 744T108 764Q108 775 116 783T136 792Q147 792 155 784T164 764ZM198 -12Q138 -12 105 27T72 154V667H104V154Q104 78 130 48T198 18Q240 18 266 48T292 154V667H324V154Q324 66 291 27T198 -12Z"  />
<glyph unicode="&#xDD;" horiz-adv-x="322" d="M150 728H126L204 872H245L150 728ZM145 0V289L2 667H38L161 328L286 667H320L177 289V0H145Z"  />
<glyph unicode="&#xDE;" horiz-adv-x="341" d="M72 0V667H104V538H172Q207 538 232 523T274 481T299 421T307 348Q307 310 299 276T275 216T233 175T172 160H104V0H72ZM171 190Q224 190 248 234T272 348Q272 382 266 411T248 462T216 496T171 508H104V190H171Z"  />
<glyph unicode="&#xDF;" horiz-adv-x="540" d="M128 -12Q96 -12 72 0T21 41L45 63Q81 17 128 17Q158 17 182 44T206 121Q206 158 194 185T163 235T123 278T83 322T53 373T40 440Q40 468 48 491T71 529T104 553T144 562Q172 562 191 554T231 524L210 500Q180 533 144 533Q115 533 94 509T73 440Q73 408 85 383T116 336T156 292T196 246T227 191T240 121Q240 92 232 68T209 26T174 -2T128 -12ZM398 -12Q366 -12 342 0T291 41L315 63Q351 17 398 17Q428 17 452 44T476 121Q476 158 464 185T433 235T393 278T353 322T323 373T310 440Q310 468 318 491T341 529T374 553T414 562Q442 562 461 554T501 524L480 500Q450 533 414 533Q385 533 364 509T343 440Q343 408 355 383T386 336T426 292T466 246T497 191T510 121Q510 92 502 68T479 26T444 -2T398 -12Z"  />
<glyph unicode="&#xE0;" horiz-adv-x="266" d="M151 550L256 0H223L197 146H69L43 0H10L115 550H151ZM133 499L74 175H192L133 499ZM149 606L54 750H95L173 606H149Z"  />
<glyph unicode="&#xE1;" horiz-adv-x="266" d="M151 550L256 0H223L197 146H69L43 0H10L115 550H151ZM133 499L74 175H192L133 499ZM117 606H93L171 750H212L117 606Z"  />
<glyph unicode="&#xE2;" horiz-adv-x="266" d="M151 550L256 0H223L197 146H69L43 0H10L115 550H151ZM133 499L74 175H192L133 499ZM198 606L132 722L69 606H46L114 750H150L221 606H198Z"  />
<glyph unicode="&#xE3;" horiz-adv-x="266" d="M151 550L256 0H223L197 146H69L43 0H10L115 550H151ZM133 499L74 175H192L133 499ZM170 604Q149 604 139 621T124 660T112 699T92 717Q75 717 65 692T54 610H32Q32 637 35 661T45 704T65 733T95 744Q116 744 126 727T141 688T153 649T173 631Q190 631 200 656T211 738H233Q233 711 230 687T220 645T200 615T170 604Z"  />
<glyph unicode="&#xE4;" horiz-adv-x="266" d="M151 550L256 0H223L197 146H69L43 0H10L115 550H151ZM133 499L74 175H192L133 499ZM221 648Q221 637 213 629T193 620Q182 620 174 628T165 648Q165 659 173 667T193 676Q204 676 212 668T221 648ZM99 648Q99 637 91 629T71 620Q60 620 52 628T43 648Q43 659 51 667T71 676Q82 676 90 668T99 648Z"  />
<glyph unicode="&#xE5;" horiz-adv-x="266" d="M151 550L256 0H223L197 146H69L43 0H10L115 550H151ZM133 499L74 175H192L133 499ZM133 610Q101 610 78 633T55 688Q55 720 78 743T133 766Q165 766 187 743T210 688Q210 656 188 633T133 610ZM133 634Q156 634 171 649T187 688Q187 711 172 726T133 742Q110 742 95 727T79 688Q79 665 94 650T133 634Z"  />
<glyph unicode="&#xE6;" horiz-adv-x="424" d="M197 0V146H82L35 0H2L184 550H381V521H229V298H375V269H229V29H381V0H197ZM197 501L91 175H197V501Z"  />
<glyph unicode="&#xE7;" horiz-adv-x="322" d="M169 -187Q146 -187 130 -179T99 -159L112 -133Q127 -147 139 -153T169 -160Q189 -160 205 -147T221 -111Q221 -92 212 -82T188 -71Q177 -71 171 -75T157 -86L136 -74L159 -10Q127 -4 106 21T72 84T53 171T47 275Q47 334 53 386T75 477T116 539T179 562Q219 562 243 539T283 474L255 463Q242 498 224 515T179 533Q151 533 132 513T102 457T86 375T81 275Q81 222 86 175T102 93T132 38T179 17Q208 17 226 36T255 93L284 82Q270 40 248 16T188 -11L170 -59Q181 -49 199 -49Q219 -49 234 -65T250 -111Q250 -143 227 -165T169 -187Z"  />
<glyph unicode="&#xE8;" horiz-adv-x="293" d="M65 0V550H250V521H97V298H244V269H97V29H250V0H65ZM176 606L81 750H122L200 606H176Z"  />
<glyph unicode="&#xE9;" horiz-adv-x="293" d="M65 0V550H250V521H97V298H244V269H97V29H250V0H65ZM144 606H120L198 750H239L144 606Z"  />
<glyph unicode="&#xEA;" horiz-adv-x="293" d="M65 0V550H250V521H97V298H244V269H97V29H250V0H65ZM222 606L156 722L93 606H70L138 750H174L245 606H222Z"  />
<glyph unicode="&#xEB;" horiz-adv-x="293" d="M65 0V550H250V521H97V298H244V269H97V29H250V0H65ZM249 648Q249 637 241 629T221 620Q210 620 202 628T193 648Q193 659 201 667T221 676Q232 676 240 668T249 648ZM127 648Q127 637 119 629T99 620Q88 620 80 628T71 648Q71 659 79 667T99 676Q110 676 118 668T127 648Z"  />
<glyph unicode="&#xEC;" horiz-adv-x="162" d="M65 0V550H97V0H65ZM98 606L3 750H44L122 606H98Z"  />
<glyph unicode="&#xED;" horiz-adv-x="162" d="M65 0V550H97V0H65ZM66 606H42L120 750H161L66 606Z"  />
<glyph unicode="&#xEE;" horiz-adv-x="162" d="M65 0V550H97V0H65ZM146 606L80 722L17 606H-6L62 750H98L169 606H146Z"  />
<glyph unicode="&#xEF;" horiz-adv-x="162" d="M65 0V550H97V0H65ZM171 648Q171 637 163 629T143 620Q132 620 124 628T115 648Q115 659 123 667T143 676Q154 676 162 668T171 648ZM49 648Q49 637 41 629T21 620Q10 620 2 628T-7 648Q-7 659 1 667T21 676Q32 676 40 668T49 648Z"  />
<glyph unicode="&#xF0;" horiz-adv-x="388" d="M94 0V268H26V295H94V550H182Q221 550 249 530T297 473T325 385T334 274Q334 214 325 164T297 77T250 20T182 0H94ZM126 268V29H182Q213 29 235 48T272 100T293 178T300 274Q300 325 294 370T273 448T236 501T182 521H126V295H206V268H126Z"  />
<glyph unicode="&#xF1;" horiz-adv-x="350" d="M247 0L97 474V0H65V550H103L253 82V550H285V0H247ZM210 604Q189 604 179 621T164 660T152 699T132 717Q115 717 105 692T94 610H72Q72 637 75 661T85 704T105 733T135 744Q156 744 166 727T181 688T193 649T213 631Q230 631 240 656T251 738H273Q273 711 270 687T260 645T240 615T210 604Z"  />
<glyph unicode="&#xF2;" horiz-adv-x="359" d="M179 -12Q141 -12 116 11T75 74T54 166T47 275Q47 332 53 384T75 475T115 538T179 562Q217 562 242 539T283 476T305 384T312 275Q312 218 306 166T284 75T243 12T179 -12ZM179 17Q208 17 227 38T257 96T272 178T277 275Q277 326 273 372T257 454T227 511T179 533Q150 533 131 512T101 455T86 373T81 275Q81 225 85 179T101 96T131 39T179 17ZM194 606L99 750H140L218 606H194Z"  />
<glyph unicode="&#xF3;" horiz-adv-x="359" d="M179 -12Q141 -12 116 11T75 74T54 166T47 275Q47 332 53 384T75 475T115 538T179 562Q217 562 242 539T283 476T305 384T312 275Q312 218 306 166T284 75T243 12T179 -12ZM179 17Q208 17 227 38T257 96T272 178T277 275Q277 326 273 372T257 454T227 511T179 533Q150 533 131 512T101 455T86 373T81 275Q81 225 85 179T101 96T131 39T179 17ZM164 606H140L218 750H259L164 606Z"  />
<glyph unicode="&#xF4;" horiz-adv-x="359" d="M179 -12Q141 -12 116 11T75 74T54 166T47 275Q47 332 53 384T75 475T115 538T179 562Q217 562 242 539T283 476T305 384T312 275Q312 218 306 166T284 75T243 12T179 -12ZM179 17Q208 17 227 38T257 96T272 178T277 275Q277 326 273 372T257 454T227 511T179 533Q150 533 131 512T101 455T86 373T81 275Q81 225 85 179T101 96T131 39T179 17ZM244 606L178 722L115 606H92L160 750H196L267 606H244Z"  />
<glyph unicode="&#xF5;" horiz-adv-x="359" d="M179 -12Q141 -12 116 11T75 74T54 166T47 275Q47 332 53 384T75 475T115 538T179 562Q217 562 242 539T283 476T305 384T312 275Q312 218 306 166T284 75T243 12T179 -12ZM179 17Q208 17 227 38T257 96T272 178T277 275Q277 326 273 372T257 454T227 511T179 533Q150 533 131 512T101 455T86 373T81 275Q81 225 85 179T101 96T131 39T179 17ZM215 604Q194 604 184 621T169 660T157 699T137 717Q120 717 110 692T99 610H77Q77 637 80 661T90 704T110 733T140 744Q161 744 171 727T186 688T198 649T218 631Q235 631 245 656T256 738H278Q278 711 275 687T265 645T245 615T215 604Z"  />
<glyph unicode="&#xF6;" horiz-adv-x="359" d="M179 -12Q141 -12 116 11T75 74T54 166T47 275Q47 332 53 384T75 475T115 538T179 562Q217 562 242 539T283 476T305 384T312 275Q312 218 306 166T284 75T243 12T179 -12ZM179 17Q208 17 227 38T257 96T272 178T277 275Q277 326 273 372T257 454T227 511T179 533Q150 533 131 512T101 455T86 373T81 275Q81 225 85 179T101 96T131 39T179 17ZM267 648Q267 637 259 629T239 620Q228 620 220 628T211 648Q211 659 219 667T239 676Q250 676 258 668T267 648ZM145 648Q145 637 137 629T117 620Q106 620 98 628T89 648Q89 659 97 667T117 676Q128 676 136 668T145 648Z"  />
<glyph unicode="&#xF7;" horiz-adv-x="374" d="M222 475Q222 461 213 452T189 442Q175 442 166 451T156 475Q156 489 165 498T189 508Q203 508 212 499T222 475ZM29 322V352H345V322H29ZM222 193Q222 179 213 170T189 160Q175 160 166 169T156 193Q156 207 165 216T189 226Q203 226 212 217T222 193Z"  />
<glyph unicode="&#xF8;" horiz-adv-x="359" d="M179 -12Q153 -12 133 -2T98 29L87 0H54L79 63Q61 104 54 158T47 275Q47 332 53 384T75 475T115 538T179 562Q205 562 225 551T260 519L273 550H306L280 485Q297 444 304 390T312 275Q312 218 306 166T284 75T243 12T179 -12ZM81 275Q81 229 84 186T97 108L246 483Q235 506 219 519T179 533Q150 533 131 512T101 455T86 373T81 275ZM179 17Q208 17 227 38T257 96T272 178T277 275Q277 320 274 362T261 439L112 65Q123 42 139 30T179 17Z"  />
<glyph unicode="&#xF9;" horiz-adv-x="351" d="M176 -12Q139 -12 117 1T84 41T69 111T65 212V550H97V144Q97 78 115 48T176 17Q216 17 235 47T254 144V550H286V212Q286 153 283 111T267 41T234 1T176 -12ZM191 606L96 750H137L215 606H191Z"  />
<glyph unicode="&#xFA;" horiz-adv-x="351" d="M176 -12Q139 -12 117 1T84 41T69 111T65 212V550H97V144Q97 78 115 48T176 17Q216 17 235 47T254 144V550H286V212Q286 153 283 111T267 41T234 1T176 -12ZM161 606H137L215 750H256L161 606Z"  />
<glyph unicode="&#xFB;" horiz-adv-x="351" d="M176 -12Q139 -12 117 1T84 41T69 111T65 212V550H97V144Q97 78 115 48T176 17Q216 17 235 47T254 144V550H286V212Q286 153 283 111T267 41T234 1T176 -12ZM240 606L174 722L111 606H88L156 750H192L263 606H240Z"  />
<glyph unicode="&#xFC;" horiz-adv-x="351" d="M176 -12Q139 -12 117 1T84 41T69 111T65 212V550H97V144Q97 78 115 48T176 17Q216 17 235 47T254 144V550H286V212Q286 153 283 111T267 41T234 1T176 -12ZM264 648Q264 637 256 629T236 620Q225 620 217 628T208 648Q208 659 216 667T236 676Q247 676 255 668T264 648ZM142 648Q142 637 134 629T114 620Q103 620 95 628T86 648Q86 659 94 667T114 676Q125 676 133 668T142 648Z"  />
<glyph unicode="&#xFD;" horiz-adv-x="284" d="M126 0V238L2 550H37L142 276L248 550H282L158 238V0H126ZM127 606H103L181 750H222L127 606Z"  />
<glyph unicode="&#xFE;" horiz-adv-x="287" d="M65 0V550H97V448H142Q173 448 195 436T231 401T253 351T260 291Q260 259 253 231T232 180T195 146T142 133H97V0H65ZM141 162Q185 162 205 198T226 291Q226 346 206 382T141 419H97V162H141Z"  />
<glyph unicode="&#xFF;" horiz-adv-x="284" d="M126 0V238L2 550H37L142 276L248 550H282L158 238V0H126ZM231 648Q231 637 223 629T203 620Q192 620 184 628T175 648Q175 659 183 667T203 676Q214 676 222 668T231 648ZM109 648Q109 637 101 629T81 620Q70 620 62 628T53 648Q53 659 61 667T81 676Q92 676 100 668T109 648Z"  />
<glyph unicode="&#x152;" horiz-adv-x="561" d="M298 0V80Q287 50 274 32T248 5T221 -8T198 -12Q156 -12 129 16T84 91T60 201T53 333Q53 402 60 464T84 574T128 649T198 677Q208 677 221 674T247 662T274 634T298 587V667H508V637H330V358H501V328H330V30H508V0H298ZM298 500Q286 568 261 607T198 647Q166 647 145 622T112 553T94 453T88 333Q88 271 93 214T111 114T145 44T198 18Q236 18 261 58T298 167V500Z"  />
<glyph unicode="&#x153;" horiz-adv-x="495" d="M267 0V64Q258 40 247 25T224 2T201 -9T179 -12Q141 -12 116 11T75 74T54 166T47 275Q47 332 53 384T75 475T115 538T179 562Q189 562 200 559T224 548T247 525T267 486V550H452V521H299V298H446V269H299V29H452V0H267ZM267 408Q257 464 237 498T179 533Q149 533 130 512T100 455T85 373T81 275Q81 224 85 178T100 96T130 39T179 17Q217 17 237 52T267 143V408Z"  />
<glyph unicode="&#x160;" horiz-adv-x="304" d="M153 728L82 872H105L171 756L234 872H257L189 728H153ZM145 -12Q110 -12 80 3T27 45L51 71Q67 47 93 33T145 18Q166 18 184 27T217 53T240 93T248 147Q248 192 233 225T196 286T147 338T98 391T60 452T45 532Q45 566 55 593T83 639T123 668T170 678Q229 678 267 637L248 612Q216 648 170 648Q134 648 106 617T77 532Q77 494 92 464T129 408T178 356T227 300T265 233T280 147Q280 113 271 84T243 34T200 0T145 -12Z"  />
<glyph unicode="&#x161;" horiz-adv-x="270" d="M128 -12Q96 -12 72 0T21 41L45 63Q81 17 128 17Q158 17 182 44T206 121Q206 158 194 185T163 235T123 278T83 322T53 373T40 440Q40 468 48 491T71 529T104 553T144 562Q172 562 191 554T231 524L210 500Q180 533 144 533Q115 533 94 509T73 440Q73 408 85 383T116 336T156 292T196 246T227 191T240 121Q240 92 232 68T209 26T174 -2T128 -12ZM121 606L50 750H73L139 634L202 750H225L157 606H121Z"  />
<glyph unicode="&#x178;" horiz-adv-x="322" d="M254 764Q254 753 246 745T226 736Q215 736 207 744T198 764Q198 775 206 783T226 792Q237 792 245 784T254 764ZM132 764Q132 753 124 745T104 736Q93 736 85 744T76 764Q76 775 84 783T104 792Q115 792 123 784T132 764ZM145 0V289L2 667H38L161 328L286 667H320L177 289V0H145Z"  />
<glyph unicode="&#x17D;" horiz-adv-x="309" d="M139 728L68 872H91L157 756L220 872H243L175 728H139ZM36 0V31L233 637H36V667H266V637L68 30H273V0H36Z"  />
<glyph unicode="&#x17E;" horiz-adv-x="266" d="M29 0V28L198 521H29V550H231V522L62 29H237V0H29ZM114 606L43 750H66L132 634L195 750H218L150 606H114Z"  />
<glyph unicode="&#x192;" horiz-adv-x="283" d="M30 -119L105 223H65V253H112L157 457Q170 514 189 537T247 561Q277 561 293 535L270 516Q262 531 243 531Q223 531 212 515T190 457L145 253H224V223H138L62 -119H30Z"  />
<glyph unicode="&#x2C6;" horiz-adv-x="175" d="M152 556L86 672L23 556H0L68 700H104L175 556H152Z"  />
<glyph unicode="&#x2DC;" horiz-adv-x="201" d="M138 554Q117 554 107 571T92 610T80 649T60 667Q43 667 33 642T22 560H0Q0 587 3 611T13 654T33 683T63 694Q84 694 94 677T109 638T121 599T141 581Q158 581 168 606T179 688H201Q201 661 198 637T188 595T168 565T138 554Z"  />
<glyph unicode="&#x3BC;" horiz-adv-x="342" d="M65 -184V483H95V89Q95 13 148 13Q164 13 179 21T207 42T230 72T247 107V483H277V0H247V70Q230 35 205 12T144 -12Q113 -12 95 0V-184H65Z"  />
<glyph unicode="&#x2013;" horiz-adv-x="460" d="M30 227V257H430V227H30Z"  />
<glyph unicode="&#x2014;" horiz-adv-x="640" d="M30 227V257H610V227H30Z"  />
<glyph unicode="&#x2018;" horiz-adv-x="208" d="M69 556Q69 594 88 627T131 677L153 659Q129 641 115 616T100 567H103Q104 567 105 567T107 568Q121 568 130 559T139 535Q139 522 130 513T107 503Q91 503 80 516T69 556Z"  />
<glyph unicode="&#x2019;" horiz-adv-x="208" d="M141 624Q141 586 122 553T79 503L57 521Q81 539 95 564T110 613Q108 612 107 612H103Q89 612 80 621T71 645Q71 658 80 667T103 677Q119 677 130 664T141 624Z"  />
<glyph unicode="&#x201A;" horiz-adv-x="208" d="M141 3Q141 -35 122 -68T79 -118L57 -100Q81 -82 95 -57T110 -8Q108 -9 107 -9H103Q89 -9 80 0T71 24Q71 37 80 46T103 56Q119 56 130 43T141 3Z"  />
<glyph unicode="&#x201C;" horiz-adv-x="331" d="M67 556Q67 594 86 627T129 677L151 659Q127 641 113 616T98 567H101Q102 567 103 567T105 568Q119 568 128 559T137 535Q137 522 128 513T105 503Q89 503 78 516T67 556ZM190 556Q190 594 209 627T252 677L274 659Q250 641 236 616T221 567H224Q225 567 226 567T228 568Q242 568 251 559T260 535Q260 522 251 513T228 503Q212 503 201 516T190 556Z"  />
<glyph unicode="&#x201D;" horiz-adv-x="331" d="M264 624Q264 586 245 553T202 503L180 521Q204 539 218 564T233 613Q231 612 230 612H226Q212 612 203 621T194 645Q194 658 203 667T226 677Q242 677 253 664T264 624ZM141 624Q141 586 122 553T79 503L57 521Q81 539 95 564T110 613Q108 612 107 612H103Q89 612 80 621T71 645Q71 658 80 667T103 677Q119 677 130 664T141 624Z"  />
<glyph unicode="&#x201E;" horiz-adv-x="331" d="M141 3Q141 -35 122 -68T79 -118L57 -100Q81 -82 95 -57T110 -8Q108 -9 107 -9H103Q89 -9 80 0T71 24Q71 37 80 46T103 56Q119 56 130 43T141 3ZM264 3Q264 -35 245 -68T202 -118L180 -100Q204 -82 218 -57T233 -8Q231 -9 230 -9H226Q212 -9 203 0T194 24Q194 37 203 46T226 56Q242 56 253 43T264 3Z"  />
<glyph unicode="&#x2020;" horiz-adv-x="251" d="M137 543L141 327H110L114 543L25 539V566L114 563L110 677H141L137 563L226 566V539L137 543Z"  />
<glyph unicode="&#x2021;" horiz-adv-x="251" d="M226 539L137 543V314L226 318V291L137 294L141 180H110L114 294L25 291V318L114 314V543L25 539V566L114 563L110 677H141L137 563L226 566V539Z"  />
<glyph unicode="&#x2022;" horiz-adv-x="358" d="M278 242Q278 222 271 205T250 174T218 153T180 145Q160 145 142 152T111 173T90 204T82 242Q82 283 110 311T180 340Q221 340 249 312T278 242Z"  />
<glyph unicode="&#x2026;" horiz-adv-x="624" d="M137 24Q137 10 128 1T104 -9Q90 -9 81 0T71 24Q71 37 80 46T104 56Q118 56 127 47T137 24ZM345 24Q345 10 336 1T312 -9Q298 -9 289 0T279 24Q279 37 288 46T312 56Q326 56 335 47T345 24ZM553 24Q553 10 544 1T520 -9Q506 -9 497 0T487 24Q487 37 496 46T520 56Q534 56 543 47T553 24Z"  />
<glyph unicode="&#x2030;" horiz-adv-x="670" d="M219 426Q219 368 193 330T122 291Q78 291 53 329T27 426Q27 484 52 523T122 562Q167 562 193 523T219 426ZM424 123Q424 65 398 27T328 -12Q284 -12 258 26T232 123Q232 182 258 220T328 259Q372 259 398 221T424 123ZM120 0H88L328 549H361L120 0ZM186 426Q186 472 170 504T122 537Q91 537 75 505T58 426Q58 380 74 348T122 316Q154 316 170 348T186 426ZM393 123Q393 169 376 201T328 234Q297 234 280 202T263 123Q263 101 267 81T280 46T300 22T328 13Q343 13 355 22T375 46T388 81T393 123ZM643 123Q643 65 617 27T547 -12Q503 -12 477 26T451 123Q451 182 477 220T547 259Q591 259 617 221T643 123ZM612 123Q612 169 595 201T547 234Q516 234 499 202T482 123Q482 101 486 81T499 46T519 22T547 13Q562 13 574 22T594 46T607 81T612 123Z"  />
<glyph unicode="&#x2039;" horiz-adv-x="183" d="M120 63L30 243L120 420H153L63 243L153 63H120Z"  />
<glyph unicode="&#x203A;" horiz-adv-x="183" d="M63 63H30L120 243L30 420H63L153 243L63 63Z"  />
<glyph unicode="&#x20AC;" horiz-adv-x="326" d="M86 324Q85 312 85 300T85 275Q85 262 85 250T86 225H204V195H88Q91 156 98 124T116 68T143 31T183 17Q212 17 230 36T259 93L288 82Q273 38 249 13T183 -12Q152 -12 130 3T92 47T67 112T54 195H18V225H52Q51 237 51 249T51 275Q51 287 51 299T52 324H18V354H54Q58 399 67 437T91 502T129 546T183 562Q223 562 247 539T287 474L259 463Q246 498 228 515T183 533Q160 533 144 520T116 482T98 426T88 354H204V324H86Z"  />
<glyph unicode="&#x2122;" horiz-adv-x="374" d="M311 447V629L256 447H248L193 629V447H165V667H208L252 510L296 667H339V447H311ZM87 641V447H59V641H17V667H129V641H87Z"  />


</font>
</defs>
</svg>
